# xmcd
#
# Track frame offsets:
# 151
# 17754
# 31659
# 43518
# 56665
# 69230
# 85091
# 100290
# 113963
# 129374
#
# Disc length: 1947 seconds
#
#
# Revision: 0
# Processed by: cddbd v1.5.1PL2 Copyright (c) Steve Scherf et al.
# Submitted via: FreeRIP 2.944 
#
DISCID=7607990a
DTITLE=Anselmo e Duarte - Olhos nos olhos
DYEAR=1900
DGENRE=Sertanejo
TTITLE0=Olhos nos olhos
TTITLE1=Mundo Maravilhoso
TTITLE2=Viola minha viola
TTITLE3=Calada da noite
TTITLE4=Dramas de amor
TTITLE5=Sonho incompleto
TTITLE6=Homem sem vergonha
TTITLE7=O mensageiro
TTITLE8=Casal feliz
TTITLE9=Paixão da minha vida
EXTD=
EXTT0=
EXTT1=
EXTT2=
EXTT3=
EXTT4=
EXTT5=
EXTT6=
EXTT7=
EXTT8=
EXTT9=
PLAYORDER=
